<?xml version="1.0" encoding="UTF-8"?>
<svg id="Layer_1" data-name="Layer 1" xmlns="http://www.w3.org/2000/svg" viewBox="0 0 474.34 201.03">
  <defs>
    <style>
      .cls-1 {
        font-family: MyriadPro-Regular, 'Myriad Pro';
      }

      .cls-1, .cls-2 {
        font-size: 16.13px;
      }

      .cls-2 {
        font-family: Baskerville-SemiBold, Baskerville;
        font-weight: 600;
      }
    </style>
  </defs>
  <text class="cls-2" transform="translate(4.8 16.61) rotate(28.35) scale(.83 1)"><tspan x="0" y="0">I</tspan></text>
  <text class="cls-2" transform="translate(9.36 19.07) rotate(27.01) scale(.83 1)"><tspan x="0" y="0">f</tspan></text>
  <text class="cls-2" transform="translate(14.94 21.88) rotate(25.39) scale(.83 1)"><tspan x="0" y="0"> </tspan></text>
  <text class="cls-2" transform="translate(18.14 23.42) rotate(23.76) scale(.83 1)"><tspan x="0" y="0">y</tspan></text>
  <text class="cls-2" transform="translate(24.54 26.25) rotate(21.5) scale(.83 1)"><tspan x="0" y="0">o</tspan></text>
  <text class="cls-2" transform="translate(31.88 29.14) rotate(18.8) scale(.83 1)"><tspan x="0" y="0">u</tspan></text>
  <text class="cls-2" transform="translate(39.68 31.75) rotate(16.75) scale(.83 1)"><tspan x="0" y="0"> </tspan></text>
  <text class="cls-2" transform="translate(43.16 32.88) rotate(14.06) scale(.83 1)"><tspan x="0" y="0">w</tspan></text>
  <text class="cls-2" transform="translate(53.67 35.46) rotate(10.64) scale(.83 1)"><tspan x="0" y="0">o</tspan></text>
  <text class="cls-2" transform="translate(61.44 36.92) rotate(7.52) scale(.83 1)"><tspan x="0" y="0">u</tspan></text>
  <text class="cls-2" transform="translate(69.65 37.96) rotate(5.05) scale(.83 1)"><tspan x="0" y="0">l</tspan></text>
  <text class="cls-2" transform="translate(74.11 38.39) rotate(2.58) scale(.83 1)"><tspan x="0" y="0">d</tspan></text>
  <text class="cls-2" transform="translate(82.48 38.71) rotate(.32) scale(.83 1)"><tspan x="0" y="0"> </tspan></text>
  <text class="cls-2" transform="translate(85.99 38.74) rotate(-1.13) scale(.83 1)"><tspan x="0" y="0">l</tspan></text>
  <text class="cls-2" transform="translate(90.4 38.65) rotate(-2.72) scale(.83 1)"><tspan x="0" y="0">i</tspan></text>
  <text class="cls-2" transform="translate(94.82 38.46) rotate(-4.85) scale(.83 1)"><tspan x="0" y="0">k</tspan></text>
  <text class="cls-2" transform="translate(102.66 37.79) rotate(-7.18) scale(.83 1)"><tspan x="0" y="0">e</tspan></text>
  <text class="cls-2" transform="translate(109.62 36.88) rotate(-8.69) scale(.83 1)"><tspan x="0" y="0"> </tspan></text>
  <text class="cls-2" transform="translate(113.07 36.36) rotate(-9.78) scale(.83 1)"><tspan x="0" y="0">t</tspan></text>
  <text class="cls-2" transform="translate(117.98 35.53) rotate(-11.18) scale(.83 1)"><tspan x="0" y="0">o</tspan></text>
  <text class="cls-2" transform="translate(125.33 34.05) rotate(-12.13) scale(.83 1)"><tspan x="0" y="0"> </tspan></text>
  <text class="cls-2" transform="translate(128.57 33.38) rotate(-12.96) scale(.83 1)"><tspan x="0" y="0">w</tspan></text>
  <text class="cls-2" transform="translate(138.73 31.03) rotate(-13.16) scale(.83 1)"><tspan x="0" y="0">o</tspan></text>
  <text class="cls-2" transform="translate(146.06 29.31) rotate(-12.5) scale(.83 1)"><tspan x="0" y="0">r</tspan></text>
  <text class="cls-2" transform="translate(151.71 28.03) rotate(-10.87) scale(.83 1)"><tspan x="0" y="0">k</tspan></text>
  <text class="cls-2" transform="translate(159.31 26.6) rotate(-8.58) scale(.83 1)"><tspan x="0" y="0"> </tspan></text>
  <text class="cls-2" transform="translate(162.52 26.1) rotate(-6.33) scale(.83 1)"><tspan x="0" y="0">f</tspan></text>
  <text class="cls-2" transform="translate(166.76 25.55) rotate(-1.58) scale(.83 1)"><tspan x="0" y="0">o</tspan></text>
  <text class="cls-2" transform="translate(173.99 25.36) rotate(5.94) scale(.83 1)"><tspan x="0" y="0">r</tspan></text>
  <text class="cls-2" transform="translate(179.56 25.98) rotate(12.28) scale(.83 1)"><tspan x="0" y="0"> </tspan></text>
  <text class="cls-2" transform="translate(182.74 26.64) rotate(14.44) scale(.83 1)"><tspan x="0" y="0">t</tspan></text>
  <text class="cls-2" transform="translate(187.31 27.74) rotate(19.17) scale(.83 1)"><tspan x="0" y="0">h</tspan></text>
  <text class="cls-2" transform="translate(194.45 30.22) rotate(25.38) scale(.83 1)"><tspan x="0" y="0">e</tspan></text>
  <text class="cls-2" transform="translate(200.42 33.12) rotate(30.1) scale(.83 1)"><tspan x="0" y="0"> </tspan></text>
  <text class="cls-2" transform="translate(203.17 34.57) rotate(35.63) scale(.83 1)"><tspan x="0" y="0">p</tspan></text>
  <text class="cls-2" transform="translate(209.5 39.09) rotate(43.42) scale(.83 1)"><tspan x="0" y="0">u</tspan></text>
  <text class="cls-2" transform="translate(215.08 44.36) rotate(50.48) scale(.83 1)"><tspan x="0" y="0">b</tspan></text>
  <text class="cls-2" transform="translate(219.82 50.21) rotate(54.84) scale(.83 1)"><tspan x="0" y="0">l</tspan></text>
  <text class="cls-2" transform="translate(222.18 53.56) rotate(57.44) scale(.83 1)"><tspan x="0" y="0">i</tspan></text>
  <text class="cls-2" transform="translate(224.39 56.98) rotate(60) scale(.83 1)"><tspan x="0" y="0">c</tspan></text>
  <text class="cls-2" transform="translate(227.63 62.6) rotate(61.94) scale(.83 1)"><tspan x="0" y="0">a</tspan></text>
  <text class="cls-2" transform="translate(231.03 69.02) rotate(62.22) scale(.83 1)"><tspan x="0" y="0">t</tspan></text>
  <text class="cls-2" transform="translate(233.32 73.36) rotate(61.44) scale(.83 1)"><tspan x="0" y="0">i</tspan></text>
  <text class="cls-2" transform="translate(235.43 77.34) rotate(58.87) scale(.83 1)"><tspan x="0" y="0">o</tspan></text>
  <text class="cls-2" transform="translate(239.76 84.54) rotate(51.84) scale(.83 1)"><tspan x="0" y="0">n</tspan></text>
  <text class="cls-2" transform="translate(245.46 91.44) rotate(43.41) scale(.83 1)"><tspan x="0" y="0"> </tspan></text>
  <text class="cls-2" transform="translate(248.75 94.68) rotate(32.87) scale(.83 1)"><tspan x="0" y="0">o</tspan></text>
  <text class="cls-2" transform="translate(256.58 99.39) rotate(19.41) scale(.83 1)"><tspan x="0" y="0">r</tspan></text>
  <text class="cls-2" transform="translate(262.89 101.43) rotate(12.86) scale(.83 1)"><tspan x="0" y="0"> </tspan></text>
  <text class="cls-2" transform="translate(267.45 102.62) rotate(1.69) scale(.83 1)"><tspan x="0" y="0">w</tspan></text>
  <text class="cls-2" transform="translate(279.17 102.69) rotate(-7.37) scale(.83 1)"><tspan x="0" y="0">a</tspan></text>
  <text class="cls-2" transform="translate(286.84 101.66) rotate(-11.34) scale(.83 1)"><tspan x="0" y="0">n</tspan></text>
  <text class="cls-2" transform="translate(294.67 100.06) rotate(-12.07) scale(.83 1)"><tspan x="0" y="0">t</tspan></text>
  <text class="cls-2" transform="translate(299.44 99.04) rotate(-11.4) scale(.83 1)"><tspan x="0" y="0"> </tspan></text>
  <text class="cls-2" transform="translate(302.65 98.37) rotate(-9.88) scale(.83 1)"><tspan x="0" y="0">t</tspan></text>
  <text class="cls-2" transform="translate(307.31 97.49) rotate(-6.01) scale(.83 1)"><tspan x="0" y="0">o</tspan></text>
  <text class="cls-2" transform="translate(314.61 96.79) rotate(-1.27) scale(.83 1)"><tspan x="0" y="0"> </tspan></text>
  <text class="cls-2" transform="translate(317.75 96.64) rotate(3.87) scale(.83 1)"><tspan x="0" y="0">s</tspan></text>
  <text class="cls-2" transform="translate(323.81 96.96) rotate(12.24) scale(.83 1)"><tspan x="0" y="0">u</tspan></text>
  <text class="cls-2" transform="translate(331.25 98.62) rotate(20.63) scale(.83 1)"><tspan x="0" y="0">b</tspan></text>
  <text class="cls-2" transform="translate(338.66 101.26) rotate(22.99) scale(.83 1)"><tspan x="0" y="0">m</tspan></text>
  <text class="cls-2" transform="translate(350.17 106.29) rotate(26.67) scale(.83 1)"><tspan x="0" y="0">i</tspan></text>
  <text class="cls-2" transform="translate(353.84 108.12) rotate(28.82) scale(.83 1)"><tspan x="0" y="0">t</tspan></text>
  <text class="cls-2" transform="translate(358.07 110.46) rotate(30.84) scale(.83 1)"><tspan x="0" y="0"> </tspan></text>
  <text class="cls-2" transform="translate(360.86 112.09) rotate(33.28) scale(.83 1)"><tspan x="0" y="0">s</tspan></text>
  <text class="cls-2" transform="translate(366.12 115.51) rotate(36.85) scale(.83 1)"><tspan x="0" y="0">o</tspan></text>
  <text class="cls-2" transform="translate(372.06 119.8) rotate(42.11) scale(.83 1)"><tspan x="0" y="0">m</tspan></text>
  <text class="cls-2" transform="translate(381.27 128.28) rotate(47.18) scale(.83 1)"><tspan x="0" y="0">e</tspan></text>
  <text class="cls-2" transform="translate(385.8 133.23) rotate(49.78) scale(.83 1)"><tspan x="0" y="0"> </tspan></text>
  <text class="cls-2" transform="translate(387.97 135.61) rotate(53.37) scale(.83 1)"><tspan x="0" y="0">w</tspan></text>
  <text class="cls-2" transform="translate(394.04 143.84) rotate(57.61) scale(.83 1)"><tspan x="0" y="0">o</tspan></text>
  <text class="cls-2" transform="translate(398.01 150.13) rotate(60.73) scale(.83 1)"><tspan x="0" y="0">r</tspan></text>
  <text class="cls-2" transform="translate(400.81 155.13) rotate(63.37) scale(.83 1)"><tspan x="0" y="0">k</tspan></text>
  <text class="cls-2" transform="translate(404.57 162.52) rotate(59.07) scale(.83 1)"><tspan x="0" y="0"> </tspan></text>
  <text class="cls-2" transform="translate(406.52 165.75) rotate(55.5) scale(.83 1)"><tspan x="0" y="0"> </tspan></text>
  <text class="cls-2" transform="translate(408.67 168.87) rotate(51.76) scale(.83 1)"><tspan x="0" y="0"> </tspan></text>
  <text class="cls-2" transform="translate(411.04 171.85) rotate(47.86) scale(.83 1)"><tspan x="0" y="0"> </tspan></text>
  <text class="cls-2" transform="translate(413.63 174.69) rotate(43.81) scale(.83 1)"><tspan x="0" y="0"> </tspan></text>
  <text class="cls-2" transform="translate(416.54 177.54) rotate(37.64) scale(.83 1)"><tspan x="0" y="0">c</tspan></text>
  <text class="cls-2" transform="translate(422.45 181.95) rotate(30.79) scale(.83 1)"><tspan x="0" y="0">l</tspan></text>
  <text class="cls-2" transform="translate(426.63 184.41) rotate(25.39) scale(.83 1)"><tspan x="0" y="0">i</tspan></text>
  <text class="cls-2" transform="translate(431.14 186.58) rotate(18.53) scale(.83 1)"><tspan x="0" y="0">c</tspan></text>
  <text class="cls-2" transform="translate(438.39 188.97) rotate(9.58) scale(.83 1)"><tspan x="0" y="0">k</tspan></text>
  <text class="cls-1" transform="translate(446.87 190.21) rotate(3.15) scale(.83 1)"><tspan x="0" y="0"> </tspan></text>
  <text class="cls-1" transform="translate(450.09 190.38) rotate(-.19) scale(.83 1)"><tspan x="0" y="0"> </tspan></text>
</svg>